# Blender v2.76 (sub 0) OBJ File: 'mounted shrink ray.blend'
# www.blender.org
mtllib Dish.mtl
o Circle
v 0.735595 0.307759 -0.423325
v 0.638050 0.307759 -0.413717
v 0.544253 0.307759 -0.385264
v 0.457810 0.307759 -0.339059
v 0.382042 0.307759 -0.276878
v 0.319860 0.307759 -0.201110
v 0.273655 0.307759 -0.114666
v 0.245202 0.307759 -0.020870
v 0.235595 0.307759 0.076675
v 0.245202 0.307759 0.174220
v 0.273655 0.307759 0.268017
v 0.319860 0.307759 0.354460
v 0.382042 0.307759 0.430229
v 0.457810 0.307759 0.492410
v 0.544253 0.307759 0.538615
v 0.638050 0.307759 0.567068
v 0.735595 0.307759 0.576675
v 0.833140 0.307759 0.567068
v 0.926937 0.307759 0.538615
v 1.013380 0.307759 0.492410
v 1.089149 0.307759 0.430229
v 1.151330 0.307759 0.354460
v 1.197535 0.307759 0.268017
v 1.225988 0.307759 0.174220
v 1.235595 0.307759 0.076675
v 1.225987 0.307759 -0.020870
v 1.197534 0.307759 -0.114667
v 1.151329 0.307759 -0.201110
v 1.089148 0.307759 -0.276878
v 1.013379 0.307759 -0.339060
v 0.926936 0.307759 -0.385265
v 0.833139 0.307759 -0.413717
v 0.737003 0.559113 -0.421450
v 0.639458 0.559113 -0.411843
v 0.545661 0.559113 -0.383390
v 0.459218 0.559113 -0.337185
v 0.383450 0.559113 -0.275004
v 0.321268 0.559113 -0.199236
v 0.275063 0.559113 -0.112792
v 0.246611 0.559113 -0.018996
v 0.237003 0.559113 0.078550
v 0.246611 0.559113 0.176095
v 0.275063 0.559113 0.269891
v 0.321268 0.559113 0.356335
v 0.383450 0.559113 0.432103
v 0.459218 0.559113 0.494284
v 0.545662 0.559113 0.540489
v 0.639458 0.559113 0.568942
v 0.737003 0.559113 0.578550
v 0.834549 0.559113 0.568942
v 0.928345 0.559113 0.540489
v 1.014789 0.559113 0.494284
v 1.090557 0.559113 0.432103
v 1.152738 0.559113 0.356334
v 1.198943 0.559113 0.269891
v 1.227396 0.559113 0.176094
v 1.237003 0.559113 0.078549
v 1.227396 0.559113 -0.018996
v 1.198943 0.559113 -0.112793
v 1.152738 0.559113 -0.199236
v 1.090556 0.559113 -0.275004
v 1.014788 0.559113 -0.337186
v 0.928344 0.559113 -0.383390
v 0.834548 0.559113 -0.411843
v 0.735595 0.307759 -0.423325
v 0.638050 0.307759 -0.413717
v 0.544253 0.307759 -0.385264
v 0.457810 0.307759 -0.339059
v 0.382042 0.307759 -0.276878
v 0.319860 0.307759 -0.201110
v 0.273655 0.307759 -0.114666
v 0.245202 0.307759 -0.020870
v 0.235595 0.307759 0.076675
v 0.245202 0.307759 0.174220
v 0.273655 0.307759 0.268017
v 0.319860 0.307759 0.354460
v 0.382042 0.307759 0.430229
v 0.457810 0.307759 0.492410
v 0.544253 0.307759 0.538615
v 0.638050 0.307759 0.567068
v 0.735595 0.307759 0.576675
v 0.833140 0.307759 0.567068
v 0.926937 0.307759 0.538615
v 1.013380 0.307759 0.492410
v 1.089149 0.307759 0.430229
v 1.151330 0.307759 0.354460
v 1.197535 0.307759 0.268017
v 1.225988 0.307759 0.174220
v 1.235595 0.307759 0.076675
v 1.225987 0.307759 -0.020870
v 1.197534 0.307759 -0.114667
v 1.151329 0.307759 -0.201110
v 1.089148 0.307759 -0.276878
v 1.013379 0.307759 -0.339060
v 0.926936 0.307759 -0.385265
v 0.833139 0.307759 -0.413717
vn 0.098000 0.006900 -0.995200
vn 0.956900 -0.007500 0.290300
vn -0.471400 -0.003900 0.881900
vn 0.098000 -0.008000 0.995200
vn -0.995200 0.006300 -0.098000
vn 0.881900 -0.001400 -0.471400
vn 0.290300 -0.008800 0.956900
vn -0.471400 0.009200 -0.881900
vn 0.773000 -0.009100 0.634400
vn -0.773000 -0.000400 0.634400
vn 0.290300 0.005500 -0.956900
vn 0.881900 -0.008500 0.471400
vn -0.098000 -0.006900 0.995200
vn -0.956900 0.007500 -0.290300
vn 0.995200 -0.004800 -0.098000
vn -0.098000 0.008000 -0.995200
vn 0.956900 -0.003200 -0.290300
vn 0.634400 0.002200 -0.773000
vn 0.634400 -0.009300 0.773000
vn -0.881900 0.001400 0.471400
vn -0.290300 0.008800 -0.956900
vn -0.773000 0.009100 -0.634400
vn 0.471400 0.003900 -0.881900
vn -0.290300 -0.005500 0.956900
vn -0.881900 0.008500 -0.471400
vn 0.995200 -0.006300 0.098000
vn -0.995200 0.004800 0.098000
vn -0.956900 0.003200 0.290300
vn 0.773000 0.000400 -0.634400
vn 0.471400 -0.009200 0.881900
vn -0.634400 0.009300 -0.773000
vn -0.634400 -0.002200 0.773000
vn 0.000000 0.000000 1.000000
vn 0.000000 -1.000000 -0.000000
usemtl Material.002
s off
f 32//1 1//1 33//1
f 23//2 24//2 56//2
f 15//3 47//3 46//3
f 18//4 50//4 49//4
f 9//5 41//5 40//5
f 27//6 28//6 60//6
f 19//7 51//7 50//7
f 3//8 4//8 36//8
f 21//9 22//9 54//9
f 13//10 45//10 44//10
f 31//11 32//11 64//11
f 22//12 23//12 55//12
f 17//13 49//13 48//13
f 8//14 40//14 39//14
f 25//15 26//15 58//15
f 1//16 2//16 34//16
f 26//17 27//17 59//17
f 29//18 30//18 62//18
f 20//19 21//19 53//19
f 12//20 44//20 43//20
f 2//21 3//21 35//21
f 6//22 38//22 37//22
f 30//23 31//23 63//23
f 16//24 48//24 47//24
f 7//25 39//25 38//25
f 24//26 25//26 57//26
f 10//27 42//27 41//27
f 11//28 43//28 42//28
f 28//29 29//29 61//29
f 20//30 52//30 51//30
f 5//31 37//31 36//31
f 14//32 46//32 45//32
f 1//33 32//33 96//33
f 24//33 23//33 87//33
f 15//33 14//33 78//33
f 18//33 17//33 81//33
f 9//33 8//33 72//33
f 28//33 27//33 91//33
f 19//33 18//33 82//33
f 4//33 3//33 67//33
f 22//33 21//33 85//33
f 13//33 12//33 76//33
f 32//33 31//33 95//33
f 23//33 22//33 86//33
f 17//33 16//33 80//33
f 8//33 7//33 71//33
f 26//33 25//33 89//33
f 2//33 1//33 65//33
f 27//33 26//33 90//33
f 30//33 29//33 93//33
f 21//33 20//33 84//33
f 12//33 11//33 75//33
f 3//33 2//33 66//33
f 6//33 5//33 69//33
f 31//33 30//33 94//33
f 16//33 15//33 79//33
f 7//33 6//33 70//33
f 25//33 24//33 88//33
f 10//33 9//33 73//33
f 11//33 10//33 74//33
f 29//33 28//33 92//33
f 20//33 19//33 83//33
f 5//33 4//33 68//33
f 14//33 13//33 77//33
f 83//34 75//34 67//34
f 64//1 32//1 33//1
f 55//2 23//2 56//2
f 14//3 15//3 46//3
f 17//4 18//4 49//4
f 8//5 9//5 40//5
f 59//6 27//6 60//6
f 18//7 19//7 50//7
f 35//8 3//8 36//8
f 53//9 21//9 54//9
f 12//10 13//10 44//10
f 63//11 31//11 64//11
f 54//12 22//12 55//12
f 16//13 17//13 48//13
f 7//14 8//14 39//14
f 57//15 25//15 58//15
f 33//16 1//16 34//16
f 58//17 26//17 59//17
f 61//18 29//18 62//18
f 52//19 20//19 53//19
f 11//20 12//20 43//20
f 34//21 2//21 35//21
f 5//22 6//22 37//22
f 62//23 30//23 63//23
f 15//24 16//24 47//24
f 6//25 7//25 38//25
f 56//26 24//26 57//26
f 9//27 10//27 41//27
f 10//28 11//28 42//28
f 60//29 28//29 61//29
f 19//30 20//30 51//30
f 4//31 5//31 36//31
f 13//32 14//32 45//32
f 65//33 1//33 96//33
f 88//33 24//33 87//33
f 79//33 15//33 78//33
f 82//33 18//33 81//33
f 73//33 9//33 72//33
f 92//33 28//33 91//33
f 83//33 19//33 82//33
f 68//33 4//33 67//33
f 86//33 22//33 85//33
f 77//33 13//33 76//33
f 96//33 32//33 95//33
f 87//33 23//33 86//33
f 81//33 17//33 80//33
f 72//33 8//33 71//33
f 90//33 26//33 89//33
f 66//33 2//33 65//33
f 91//33 27//33 90//33
f 94//33 30//33 93//33
f 85//33 21//33 84//33
f 76//33 12//33 75//33
f 67//33 3//33 66//33
f 70//33 6//33 69//33
f 95//33 31//33 94//33
f 80//33 16//33 79//33
f 71//33 7//33 70//33
f 89//33 25//33 88//33
f 74//33 10//33 73//33
f 75//33 11//33 74//33
f 93//33 29//33 92//33
f 84//33 20//33 83//33
f 69//33 5//33 68//33
f 78//33 14//33 77//33
f 67//34 66//34 65//34
f 65//34 96//34 67//34
f 95//34 94//34 93//34
f 93//34 92//34 91//34
f 91//34 90//34 87//34
f 89//34 88//34 87//34
f 87//34 86//34 85//34
f 85//34 84//34 87//34
f 83//34 82//34 81//34
f 81//34 80//34 79//34
f 79//34 78//34 75//34
f 77//34 76//34 75//34
f 75//34 74//34 73//34
f 73//34 72//34 75//34
f 71//34 70//34 69//34
f 69//34 68//34 71//34
f 67//34 96//34 95//34
f 95//34 93//34 67//34
f 90//34 89//34 87//34
f 87//34 84//34 83//34
f 83//34 81//34 75//34
f 78//34 77//34 75//34
f 75//34 72//34 71//34
f 71//34 68//34 67//34
f 67//34 93//34 91//34
f 91//34 87//34 83//34
f 81//34 79//34 75//34
f 75//34 71//34 67//34
f 67//34 91//34 83//34
