# Blender v2.76 (sub 0) OBJ File: 'ruler.blend'
# www.blender.org
mtllib ruler.mtl
o Cube
v 6.000793 0.026900 -0.750797
v 5.999996 0.027270 0.750000
v -5.999996 0.027270 0.750000
v -6.000791 0.026900 -0.750798
v 6.054828 0.313505 -0.777261
v 6.052812 0.063590 0.809785
v -6.052818 0.063590 0.809783
v -6.054823 0.313504 -0.777261
v 6.030726 0.359479 0.048552
v 0.000001 0.302977 -0.767947
v -0.000003 0.053509 0.752328
v -6.030726 0.359478 0.048551
v -0.000001 0.291597 0.010674
v -5.003991 0.027270 0.750000
v -4.990583 0.311753 -0.775712
v -4.988912 0.061913 0.800223
v -4.970495 0.348183 0.042249
v -3.979037 0.336922 0.035965
v -3.995127 0.310006 -0.774167
v -3.993789 0.060240 0.790692
v -2.976309 0.325500 0.029592
v -2.988343 0.308235 -0.772599
v -2.987344 0.058544 0.781024
v -2.001656 0.314398 0.023397
v -2.009749 0.306513 -0.771076
v -2.009079 0.056895 0.771627
v -0.986283 0.302832 0.016943
v -0.990270 0.304719 -0.769489
v -0.989942 0.055178 0.761838
v 0.985319 0.304690 -0.769463
v 0.984988 0.055150 0.761678
v 0.981396 0.302644 0.016838
v 1.976055 0.313839 0.023086
v 1.983954 0.306427 -0.770999
v 1.983290 0.056812 0.771155
v 2.999061 0.325354 0.029511
v 3.011047 0.308212 -0.772579
v 3.010043 0.058522 0.780901
v 3.979007 0.336384 0.035666
v 3.994910 0.309923 -0.774092
v 3.993578 0.060161 0.790237
v 4.968140 0.347518 0.041878
v 4.987996 0.311650 -0.775620
v 4.986335 0.061814 0.799661
v -0.024296 0.076747 0.744952
v -0.024294 0.314835 0.003298
v -5.013205 0.085151 0.792847
v -4.994789 0.371421 0.034873
v -4.003330 0.360161 0.028589
v -4.018083 0.083479 0.783316
v -3.000602 0.348738 0.022216
v -3.011637 0.081782 0.773649
v -2.025949 0.337636 0.016021
v -2.033371 0.080133 0.764251
v -1.010577 0.326070 0.009567
v -1.014235 0.078416 0.754462
v 0.960694 0.078388 0.754302
v 0.957103 0.325882 0.009462
v 1.951762 0.337077 0.015710
v 1.958997 0.080051 0.763779
v 2.974768 0.348592 0.022135
v 2.985750 0.081761 0.773525
v 3.954713 0.359623 0.028290
v 3.969285 0.083399 0.782862
v 4.943847 0.370756 0.034502
v 4.962041 0.085052 0.792285
vt 0.741092 0.810632
vt 0.741092 0.490056
vt 0.396083 0.806283
vt 0.915557 0.461412
vt 0.915557 0.869530
vt 0.828581 0.876347
vt 0.168951 0.460899
vt 0.000257 0.050136
vt 0.014769 0.000257
vt 0.908629 0.174187
vt 0.908195 0.168752
vt 0.944821 0.030395
vt 0.528952 0.460898
vt 0.719746 0.400415
vt 0.719746 0.005056
vt 0.395570 0.807835
vt 0.007517 0.722394
vt 0.003887 0.765891
vt 0.807491 0.375331
vt 0.720770 0.328651
vt 0.720259 0.000257
vt 0.396083 0.993862
vt 0.396736 0.814871
vt 0.483399 0.810834
vt 0.087246 0.811289
vt 0.174236 0.809901
vt 0.174236 0.999743
vt 0.043751 0.811983
vt 0.087573 0.995706
vt 0.828836 0.508091
vt 0.785093 0.879756
vt 0.785476 0.531431
vt 0.763349 0.881460
vt 0.022004 0.812330
vt 0.044241 0.993687
vt 0.011130 0.812504
vt 0.022575 0.992678
vt 0.763796 0.543100
vt 0.752477 0.882312
vt 0.752956 0.548935
vt 0.747041 0.882738
vt 0.005694 0.812590
vt 0.011742 0.992173
vt 0.000257 0.812677
vt 0.006326 0.991921
vt 0.747536 0.551853
vt 0.741605 0.883164
vt 0.483073 0.995250
vt 0.526731 0.808815
vt 0.850851 0.398670
vt 0.807235 0.007074
vt 0.872531 0.410340
vt 0.850723 0.010483
vt 0.526568 0.995944
vt 0.548397 0.807806
vt 0.548315 0.996291
vt 0.559229 0.807301
vt 0.883371 0.416175
vt 0.872467 0.012187
vt 0.888791 0.419093
vt 0.883339 0.013039
vt 0.559189 0.996465
vt 0.564646 0.807048
vt 0.564626 0.996551
vt 0.570062 0.806796
vt 0.894211 0.422010
vt 0.888775 0.013465
vt 0.396083 0.461412
vt 0.741092 0.461435
vt 0.359745 0.005055
vt 0.359745 0.400415
vt 0.944821 0.346600
vt 0.894724 0.348117
vt 0.895159 0.342682
vt 0.894725 0.000257
vt 0.944821 0.001775
vt 0.901677 0.087222
vt 0.895593 0.337247
vt 0.896463 0.326376
vt 0.905153 0.130704
vt 0.898201 0.304635
vt 0.906891 0.152446
vt 0.901677 0.261152
vt 0.907760 0.163316
vt 0.374771 0.000257
vt 0.360258 0.050136
vt 0.000710 0.803951
vt 0.000257 0.809388
vt 0.395570 0.462965
vt 0.014777 0.635400
vt 0.000257 0.461412
vt 0.007517 0.548406
vt 0.012962 0.613652
vt 0.013870 0.624526
vt 0.011147 0.591903
vt 0.001164 0.798514
vt 0.014323 0.629963
vt 0.002072 0.787640
vt 0.000910 0.991668
vt 0.742116 0.554770
vt 0.570062 0.996638
vt 0.894211 0.013891
vn -0.000000 -1.000000 0.000200
vn 0.004700 0.932000 0.362400
vn 0.731900 -0.627700 -0.265200
vn 0.004100 -0.823800 0.566800
vn -0.982600 -0.181700 0.038800
vn -0.001400 -0.091700 -0.995800
vn -0.012600 0.952100 0.305600
vn -0.011300 0.999800 0.014600
vn 0.001700 0.998400 -0.055600
vn 0.001800 0.999000 -0.044500
vn 0.005000 0.935500 0.353400
vn 0.004900 0.938900 0.344300
vn 0.001800 0.999400 -0.033200
vn 0.001800 0.999800 -0.021500
vn 0.004800 0.942300 0.334800
vn 0.004700 0.945500 0.325500
vn 0.001800 0.999900 -0.009900
vn 0.001800 1.000000 0.002400
vn 0.004600 0.948900 0.315500
vn -0.011300 0.999900 0.002500
vn -0.012700 0.948900 0.315400
vn -0.012700 0.945600 0.325000
vn -0.011200 0.999900 -0.009400
vn -0.011100 0.999700 -0.021500
vn -0.012700 0.942200 0.334800
vn -0.012700 0.938900 0.343900
vn -0.011000 0.999400 -0.032900
vn -0.011000 0.999000 -0.044100
vn -0.012700 0.935500 0.353000
vn 0.626000 0.736100 0.257400
vn 0.621400 0.735400 0.270400
vn 0.629300 0.736600 0.248000
vn -0.633100 -0.737000 -0.236600
vn 0.631400 0.736800 0.241800
vn 0.627800 0.736400 0.252300
vn 0.624200 0.735900 0.262400
vn 0.617300 0.734700 0.281400
vn 0.625300 0.736000 0.259500
vn 0.629600 0.736600 0.247000
vn 0.613300 0.733900 0.292100
vn 0.012100 0.935300 0.353500
vn 0.995900 -0.091000 0.000600
vn 0.982600 -0.181700 0.038800
vn -0.003500 -0.853300 0.521500
vn 0.003300 -0.853300 0.521400
vn 0.000000 -0.823200 0.567800
vn 0.004000 -0.823700 0.567000
vn -0.000000 -0.088400 0.996100
vn -0.995900 -0.091000 0.000500
vn -0.731800 -0.627700 -0.265200
vn 0.000000 -0.062000 -0.998100
vn 0.001300 -0.091700 -0.995800
vn 0.001400 -0.092000 -0.995800
vn -0.004600 0.949000 0.315300
vn -0.001700 1.000000 0.002600
vn 0.010400 0.998900 -0.044700
vn 0.011100 0.999400 -0.033400
vn 0.012800 0.938700 0.344400
vn 0.012900 0.942200 0.334900
vn 0.011200 0.999700 -0.021700
vn 0.011300 0.999900 -0.010000
vn 0.012800 0.945500 0.325500
vn 0.012800 0.948800 0.315500
vn 0.011400 0.999900 0.002300
vn 0.011500 0.999800 0.014600
vn 0.012800 0.952100 0.305600
vn -0.001800 1.000000 -0.009400
vn -0.004700 0.945700 0.325000
vn -0.004700 0.942300 0.334700
vn -0.001800 0.999800 -0.021400
vn -0.001800 0.999500 -0.032700
vn -0.004800 0.939000 0.343800
vn -0.004900 0.935700 0.352900
vn -0.001800 0.999000 -0.043900
vn -0.001800 0.998400 -0.055600
vn -0.005000 0.932000 0.362400
usemtl Material.002
s off
f 2/1/1 14/2/1 1/3/1
f 12/4/2 7/5/2 16/6/2
f 9/7/3 6/8/3 2/9/3
f 11/10/4 29/11/4 14/12/4
f 12/13/5 8/14/5 4/15/5
f 1/16/6 30/17/6 34/18/6
f 32/19/7 13/20/7 11/21/7
f 10/22/8 13/23/8 32/24/8
f 15/25/9 8/26/9 12/27/9
f 19/28/10 15/25/10 17/29/10
f 17/30/11 16/6/11 20/31/11
f 18/32/12 20/31/12 23/33/12
f 22/34/13 19/28/13 18/35/13
f 25/36/14 22/34/14 21/37/14
f 21/38/15 23/33/15 26/39/15
f 24/40/16 26/39/16 29/41/16
f 28/42/17 25/36/17 24/43/17
f 10/44/18 28/42/18 27/45/18
f 27/46/19 29/41/19 11/47/19
f 30/48/20 32/24/20 33/49/20
f 33/50/21 32/19/21 31/51/21
f 36/52/22 33/50/22 35/53/22
f 34/54/23 33/49/23 36/55/23
f 37/56/24 36/55/24 39/57/24
f 39/58/25 36/52/25 38/59/25
f 42/60/26 39/58/26 41/61/26
f 40/62/27 39/57/27 42/63/27
f 43/64/28 42/63/28 9/65/28
f 9/66/29 42/60/29 44/67/29
f 39/58/30 63/58/30 64/61/30
f 21/38/31 51/38/31 52/33/31
f 27/46/32 55/46/32 56/41/32
f 13/20/33 11/21/33 45/21/33
f 32/19/34 58/19/34 57/51/34
f 36/52/35 61/52/35 62/59/35
f 42/60/36 65/60/36 66/67/36
f 18/32/37 49/32/37 50/31/37
f 24/40/38 53/40/38 54/39/38
f 33/50/39 59/50/39 60/53/39
f 17/30/40 48/30/40 47/6/40
f 4/68/1 1/3/1 14/2/1
f 14/2/1 3/69/1 4/68/1
f 17/30/41 12/4/41 16/6/41
f 2/9/42 1/70/42 9/7/42
f 5/71/43 9/7/43 1/70/43
f 2/72/44 6/73/44 44/74/44
f 7/75/45 3/76/45 16/77/45
f 2/72/44 44/74/44 41/78/44
f 16/77/46 3/76/46 14/12/46
f 2/72/44 41/78/44 38/79/44
f 20/80/47 16/77/47 14/12/47
f 2/72/44 38/79/44 35/81/44
f 23/82/4 20/80/4 14/12/4
f 2/72/44 35/81/44 31/83/44
f 26/84/4 23/82/4 14/12/4
f 2/72/44 31/83/44 11/10/44
f 29/11/4 26/84/4 14/12/4
f 14/12/48 2/72/48 11/10/48
f 4/15/49 3/85/49 12/13/49
f 7/86/50 12/13/50 3/85/50
f 43/87/6 5/88/6 1/16/6
f 1/16/51 4/89/51 10/90/51
f 8/91/52 15/92/52 4/89/52
f 22/93/53 25/94/53 4/89/53
f 15/92/53 19/95/53 4/89/53
f 40/96/6 43/87/6 1/16/6
f 4/89/53 19/95/53 22/93/53
f 25/94/53 28/97/53 4/89/53
f 10/90/6 30/17/6 1/16/6
f 34/18/6 37/98/6 1/16/6
f 4/89/53 28/97/53 10/90/53
f 37/98/6 40/96/6 1/16/6
f 31/51/54 32/19/54 11/21/54
f 30/48/55 10/22/55 32/24/55
f 17/29/56 15/25/56 12/27/56
f 18/35/57 19/28/57 17/29/57
f 18/32/58 17/30/58 20/31/58
f 21/38/59 18/32/59 23/33/59
f 21/37/60 22/34/60 18/35/60
f 24/43/61 25/36/61 21/37/61
f 24/40/62 21/38/62 26/39/62
f 27/46/63 24/40/63 29/41/63
f 27/45/64 28/42/64 24/43/64
f 13/99/65 10/44/65 27/45/65
f 13/100/66 27/46/66 11/47/66
f 34/54/67 30/48/67 33/49/67
f 35/53/68 33/50/68 31/51/68
f 38/59/69 36/52/69 35/53/69
f 37/56/70 34/54/70 36/55/70
f 40/62/71 37/56/71 39/57/71
f 41/61/72 39/58/72 38/59/72
f 44/67/73 42/60/73 41/61/73
f 43/64/74 40/62/74 42/63/74
f 5/101/75 43/64/75 9/65/75
f 6/102/76 9/66/76 44/67/76
f 41/61/30 39/58/30 64/61/30
f 23/33/31 21/38/31 52/33/31
f 29/41/32 27/46/32 56/41/32
f 46/20/33 13/20/33 45/21/33
f 31/51/34 32/19/34 57/51/34
f 38/59/35 36/52/35 62/59/35
f 44/67/36 42/60/36 66/67/36
f 20/31/37 18/32/37 50/31/37
f 26/39/38 24/40/38 54/39/38
f 35/53/39 33/50/39 60/53/39
f 16/6/40 17/30/40 47/6/40
